<svg height="28" viewBox="0 0 30 28" width="30" xmlns="http://www.w3.org/2000/svg"><path d="m891.534659 130.244644-7.145751 3.756744c-.488844.257001-1.093472.069054-1.350472-.41979-.10234-.194661-.137654-.417629-.100477-.634387l1.364717-7.95691c.055638-.324394-.051911-.655394-.287597-.885132l-5.781034-5.635115c-.395483-.385501-.403576-1.018614-.018074-1.414098.153508-.157483.354651-.259971.572288-.291595l7.989192-1.160898c.32571-.047328.607276-.251898.752938-.547041l3.572875-7.239436c.244422-.495254.844048-.698593 1.339302-.454171.197212.097331.35684.256958.45417.454171l3.572875 7.239436c.145662.295143.427228.499713.752938.547041l7.989192 1.160898c.546545.079417.925227.58686.845809 1.133405-.031624.217637-.134112.41878-.291595.572288l-5.781034 5.635115c-.235686.229738-.343235.560738-.287597.885132l1.364717 7.95691c.093361.544337-.272226 1.061293-.816563 1.154654-.216758.037177-.439726.001862-.634386-.100477l-7.145751-3.756744c-.291324-.153158-.639358-.153158-.930682 0z" fill-rule="evenodd" transform="translate(-877 -107)"/></svg>